<svg width="60" height="69" viewBox="0 0 60 69" fill="none" xmlns="http://www.w3.org/2000/svg">
<path d="M30.1562 0.600132C30.5213 0.600132 30.9816 0.840425 31.4967 1.544C32.0027 2.23504 32.4835 3.27347 32.8977 4.61063C33.7237 7.2777 34.2437 10.9989 34.2437 15.1353C34.2437 19.2718 33.7237 22.9929 32.8977 25.66C32.4835 26.9972 32.0027 28.0356 31.4967 28.7266C30.9816 29.4302 30.5213 29.6705 30.1562 29.6705C29.7912 29.6705 29.3309 29.4302 28.8158 28.7266C28.3098 28.0356 27.829 26.9972 27.4148 25.66C26.5888 22.9929 26.0688 19.2718 26.0688 15.1353C26.0688 10.9989 26.5888 7.2777 27.4148 4.61063C27.829 3.27347 28.3098 2.23504 28.8158 1.544C29.3309 0.840425 29.7912 0.600132 30.1562 0.600132Z" stroke="#F04856" stroke-width="1.2"/>
<path d="M50.9227 11.2869C51.2318 11.6612 51.4063 12.2738 51.3609 13.1882C51.3156 14.1016 51.0519 15.2362 50.5677 16.526C49.6011 19.1008 47.8055 22.1626 45.3984 25.0772C42.9913 27.9917 40.4626 30.1659 38.3361 31.3363C37.2709 31.9226 36.3338 32.2418 35.5794 32.2967C34.8242 32.3517 34.3183 32.1403 34.0091 31.766C33.7 31.3917 33.5255 30.7791 33.5708 29.8647C33.6162 28.9513 33.8799 27.8167 34.3641 26.5269C35.3307 23.9521 37.1263 20.8903 39.5334 17.9758C41.9405 15.0612 44.4692 12.887 46.5957 11.7166C47.6609 11.1304 48.598 10.8111 49.3524 10.7562C50.1076 10.7012 50.6135 10.9126 50.9227 11.2869Z" stroke="#F04856" stroke-width="1.2"/>
<path d="M26.2349 31.7661C25.9258 32.1404 25.4198 32.3518 24.6647 32.2968C23.9103 32.2419 22.9732 31.9226 21.908 31.3364C19.7815 30.166 17.2528 27.9918 14.8457 25.0773C12.4386 22.1627 10.6429 19.1009 9.67633 16.5261C9.19215 15.2363 8.92847 14.1017 8.88313 13.1883C8.83773 12.2739 9.01228 11.6613 9.32142 11.287C9.63056 10.9127 10.1365 10.7013 10.8917 10.7563C11.646 10.8112 12.5831 11.1305 13.6483 11.7167C15.7749 12.8871 18.3036 15.0613 20.7107 17.9759C23.1178 20.8904 24.9134 23.9522 25.88 26.527C26.3642 27.8168 26.6279 28.9514 26.6732 29.8648C26.7186 30.7792 26.5441 31.3918 26.2349 31.7661Z" stroke="#F04856" stroke-width="1.2"/>
<path d="M59.4 36.3246C59.4 37.5116 58.3128 38.7827 56.0908 39.7916C53.9231 40.7759 50.8864 41.4003 47.5 41.4003C44.1136 41.4003 41.0769 40.7759 38.9092 39.7916C36.6872 38.7827 35.6 37.5116 35.6 36.3246C35.6 35.1376 36.6872 33.8666 38.9092 32.8576C41.0769 31.8734 44.1136 31.2489 47.5 31.2489C50.8864 31.2489 53.9231 31.8734 56.0908 32.8576C58.3128 33.8666 59.4 35.1376 59.4 36.3246Z" stroke="#F04856" stroke-width="1.2"/>
<path d="M24.4 36.3246C24.4 37.5116 23.3128 38.7827 21.0908 39.7916C18.9231 40.7759 15.8864 41.4003 12.5 41.4003C9.11363 41.4003 6.07689 40.7759 3.90923 39.7916C1.68717 38.7827 0.6 37.5116 0.6 36.3246C0.6 35.1376 1.68717 33.8666 3.90923 32.8576C6.07689 31.8734 9.11363 31.2489 12.5 31.2489C15.8864 31.2489 18.9231 31.8734 21.0908 32.8576C23.3128 33.8666 24.4 35.1376 24.4 36.3246Z" stroke="#F04856" stroke-width="1.2"/>
<ellipse cx="30" cy="36.3246" rx="4.6875" ry="5.6757" fill="#F04856"/>
<path d="M2.65156 52.9999C2.29956 52.9999 1.98756 52.9039 1.71556 52.7119C1.44356 52.5199 1.23156 52.2599 1.07956 51.9319C0.927563 51.5959 0.851562 51.2119 0.851562 50.7799V44.2279C0.851562 44.0519 0.907563 43.9079 1.01956 43.7959C1.13156 43.6839 1.27556 43.6279 1.45156 43.6279C1.62756 43.6279 1.77156 43.6839 1.88356 43.7959C1.99556 43.9079 2.05156 44.0519 2.05156 44.2279V50.7799C2.05156 51.0759 2.10756 51.3199 2.21956 51.5119C2.33156 51.7039 2.47556 51.7999 2.65156 51.7999H2.95156C3.11156 51.7999 3.23956 51.8559 3.33556 51.9679C3.43956 52.0799 3.49156 52.2239 3.49156 52.3999C3.49156 52.5759 3.41556 52.7199 3.26356 52.8319C3.11156 52.9439 2.91556 52.9999 2.67556 52.9999H2.65156Z" fill="#F04856"/>
<path d="M7.06194 53.0479C6.47794 53.0479 5.95394 52.9039 5.48994 52.6159C5.02594 52.3199 4.65794 51.9239 4.38594 51.4279C4.12194 50.9239 3.98994 50.3559 3.98994 49.7239C3.98994 49.0919 4.13394 48.5239 4.42194 48.0199C4.71794 47.5159 5.11394 47.1199 5.60994 46.8319C6.11394 46.5359 6.67794 46.3879 7.30194 46.3879C7.92594 46.3879 8.48594 46.5359 8.98194 46.8319C9.47794 47.1199 9.86994 47.5159 10.1579 48.0199C10.4539 48.5239 10.6019 49.0919 10.6019 49.7239V52.3999C10.6019 52.5759 10.5419 52.7239 10.4219 52.8439C10.3099 52.9559 10.1659 53.0119 9.98994 53.0119C9.81394 53.0119 9.66594 52.9559 9.54594 52.8439C9.43394 52.7239 9.37794 52.5759 9.37794 52.3999V51.9559C9.09794 52.2919 8.75794 52.5599 8.35794 52.7599C7.96594 52.9519 7.53394 53.0479 7.06194 53.0479ZM7.30194 51.9679C7.70994 51.9679 8.07394 51.8719 8.39394 51.6799C8.71394 51.4799 8.96594 51.2119 9.14994 50.8759C9.33394 50.5319 9.42594 50.1479 9.42594 49.7239C9.42594 49.2919 9.33394 48.9079 9.14994 48.5719C8.96594 48.2279 8.71394 47.9599 8.39394 47.7679C8.07394 47.5679 7.70994 47.4679 7.30194 47.4679C6.90194 47.4679 6.53794 47.5679 6.20994 47.7679C5.88994 47.9599 5.63394 48.2279 5.44194 48.5719C5.25794 48.9079 5.16594 49.2919 5.16594 49.7239C5.16594 50.1479 5.25794 50.5319 5.44194 50.8759C5.63394 51.2119 5.88994 51.4799 6.20994 51.6799C6.53794 51.8719 6.90194 51.9679 7.30194 51.9679Z" fill="#F04856"/>
<path d="M13.0356 53.0119C12.8596 53.0119 12.7116 52.9559 12.5916 52.8439C12.4796 52.7239 12.4236 52.5759 12.4236 52.3999V47.0479C12.4236 46.8639 12.4796 46.7159 12.5916 46.6039C12.7116 46.4919 12.8596 46.4359 13.0356 46.4359C13.2196 46.4359 13.3676 46.4919 13.4796 46.6039C13.5916 46.7159 13.6476 46.8639 13.6476 47.0479V47.1799C13.8956 46.9319 14.1956 46.7359 14.5476 46.5919C14.8996 46.4479 15.2796 46.3759 15.6876 46.3759C16.2396 46.3759 16.7316 46.4959 17.1636 46.7359C17.6036 46.9679 17.9476 47.3119 18.1956 47.7679C18.4516 48.2239 18.5796 48.7839 18.5796 49.4479V52.3999C18.5796 52.5759 18.5196 52.7239 18.3996 52.8439C18.2876 52.9559 18.1436 53.0119 17.9676 53.0119C17.7916 53.0119 17.6436 52.9559 17.5236 52.8439C17.4116 52.7239 17.3556 52.5759 17.3556 52.3999V49.4479C17.3556 48.7679 17.1716 48.2719 16.8036 47.9599C16.4436 47.6399 15.9916 47.4799 15.4476 47.4799C15.1116 47.4799 14.8076 47.5479 14.5356 47.6839C14.2636 47.8199 14.0476 48.0039 13.8876 48.2359C13.7276 48.4599 13.6476 48.7199 13.6476 49.0159V52.3999C13.6476 52.5759 13.5916 52.7239 13.4796 52.8439C13.3676 52.9559 13.2196 53.0119 13.0356 53.0119Z" fill="#F04856"/>
<path d="M23.5793 53.0479C22.9553 53.0479 22.3913 52.9039 21.8873 52.6159C21.3913 52.3199 20.9953 51.9199 20.6993 51.4159C20.4113 50.9119 20.2673 50.3439 20.2673 49.7119C20.2673 49.0799 20.3993 48.5159 20.6633 48.0199C20.9353 47.5159 21.3033 47.1199 21.7673 46.8319C22.2313 46.5359 22.7553 46.3879 23.3393 46.3879C23.8113 46.3879 24.2473 46.4879 24.6473 46.6879C25.0473 46.8799 25.3833 47.1439 25.6553 47.4799V44.2399C25.6553 44.0559 25.7113 43.9079 25.8233 43.7959C25.9433 43.6839 26.0913 43.6279 26.2673 43.6279C26.4513 43.6279 26.5993 43.6839 26.7113 43.7959C26.8233 43.9079 26.8793 44.0559 26.8793 44.2399V49.7119C26.8793 50.3439 26.7313 50.9119 26.4353 51.4159C26.1473 51.9199 25.7553 52.3199 25.2593 52.6159C24.7633 52.9039 24.2033 53.0479 23.5793 53.0479ZM23.5793 51.9679C23.9873 51.9679 24.3513 51.8719 24.6713 51.6799C24.9913 51.4799 25.2433 51.2079 25.4273 50.8639C25.6113 50.5199 25.7033 50.1359 25.7033 49.7119C25.7033 49.2799 25.6113 48.8959 25.4273 48.5599C25.2433 48.2239 24.9913 47.9599 24.6713 47.7679C24.3513 47.5679 23.9873 47.4679 23.5793 47.4679C23.1793 47.4679 22.8153 47.5679 22.4873 47.7679C22.1673 47.9599 21.9113 48.2239 21.7193 48.5599C21.5353 48.8959 21.4433 49.2799 21.4433 49.7119C21.4433 50.1359 21.5353 50.5199 21.7193 50.8639C21.9113 51.2079 22.1673 51.4799 22.4873 51.6799C22.8153 51.8719 23.1793 51.9679 23.5793 51.9679Z" fill="#F04856"/>
<path d="M31.4288 53.0479C30.8688 53.0479 30.3488 52.9639 29.8688 52.7959C29.3968 52.6199 29.0288 52.3999 28.7648 52.1359C28.6448 52.0079 28.5928 51.8639 28.6088 51.7039C28.6328 51.5359 28.7128 51.3999 28.8488 51.2959C29.0088 51.1679 29.1648 51.1159 29.3168 51.1399C29.4768 51.1559 29.6128 51.2239 29.7248 51.3439C29.8608 51.4959 30.0768 51.6399 30.3728 51.7759C30.6768 51.9039 31.0128 51.9679 31.3808 51.9679C31.8448 51.9679 32.1968 51.8919 32.4368 51.7399C32.6848 51.5879 32.8128 51.3919 32.8208 51.1519C32.8288 50.9119 32.7128 50.7039 32.4728 50.5279C32.2408 50.3519 31.8128 50.2079 31.1888 50.0959C30.3808 49.9359 29.7928 49.6959 29.4248 49.3759C29.0648 49.0559 28.8848 48.6639 28.8848 48.1999C28.8848 47.7919 29.0048 47.4559 29.2448 47.1919C29.4848 46.9199 29.7928 46.7199 30.1688 46.5919C30.5448 46.4559 30.9368 46.3879 31.3448 46.3879C31.8728 46.3879 32.3408 46.4719 32.7488 46.6399C33.1568 46.8079 33.4808 47.0399 33.7208 47.3359C33.8328 47.4639 33.8848 47.5999 33.8768 47.7439C33.8688 47.8799 33.8008 47.9959 33.6728 48.0919C33.5448 48.1799 33.3928 48.2079 33.2168 48.1759C33.0408 48.1439 32.8928 48.0719 32.7728 47.9599C32.5728 47.7679 32.3568 47.6359 32.1248 47.5639C31.8928 47.4919 31.6248 47.4559 31.3208 47.4559C30.9688 47.4559 30.6688 47.5159 30.4208 47.6359C30.1808 47.7559 30.0608 47.9319 30.0608 48.1639C30.0608 48.3079 30.0968 48.4399 30.1688 48.5599C30.2488 48.6719 30.4008 48.7759 30.6248 48.8719C30.8488 48.9599 31.1768 49.0479 31.6088 49.1359C32.5128 49.3119 33.1368 49.5639 33.4808 49.8919C33.8328 50.2119 34.0088 50.6079 34.0088 51.0799C34.0088 51.4479 33.9088 51.7799 33.7088 52.0759C33.5168 52.3719 33.2288 52.6079 32.8448 52.7839C32.4688 52.9599 31.9968 53.0479 31.4288 53.0479Z" fill="#F04856"/>
<path d="M36.1684 53.0119C35.9924 53.0119 35.8444 52.9559 35.7244 52.8439C35.6124 52.7239 35.5564 52.5759 35.5564 52.3999V47.0479C35.5564 46.8639 35.6124 46.7159 35.7244 46.6039C35.8444 46.4919 35.9924 46.4359 36.1684 46.4359C36.3524 46.4359 36.5004 46.4919 36.6124 46.6039C36.7244 46.7159 36.7804 46.8639 36.7804 47.0479V47.1799C37.0284 46.9319 37.3284 46.7359 37.6804 46.5919C38.0324 46.4479 38.4124 46.3759 38.8204 46.3759C39.3724 46.3759 39.8644 46.4959 40.2964 46.7359C40.7364 46.9679 41.0804 47.3119 41.3284 47.7679C41.5844 48.2239 41.7124 48.7839 41.7124 49.4479V52.3999C41.7124 52.5759 41.6524 52.7239 41.5324 52.8439C41.4204 52.9559 41.2764 53.0119 41.1004 53.0119C40.9244 53.0119 40.7764 52.9559 40.6564 52.8439C40.5444 52.7239 40.4884 52.5759 40.4884 52.3999V49.4479C40.4884 48.7679 40.3044 48.2719 39.9364 47.9599C39.5764 47.6399 39.1244 47.4799 38.5804 47.4799C38.2444 47.4799 37.9404 47.5479 37.6684 47.6839C37.3964 47.8199 37.1804 48.0039 37.0204 48.2359C36.8604 48.4599 36.7804 48.7199 36.7804 49.0159V52.3999C36.7804 52.5759 36.7244 52.7239 36.6124 52.8439C36.5004 52.9559 36.3524 53.0119 36.1684 53.0119ZM36.1684 50.6119C35.9924 50.6119 35.8444 50.5559 35.7244 50.4439C35.6124 50.3239 35.5564 50.1759 35.5564 49.9999V44.2399C35.5564 44.0559 35.6124 43.9079 35.7244 43.7959C35.8444 43.6839 35.9924 43.6279 36.1684 43.6279C36.3524 43.6279 36.5004 43.6839 36.6124 43.7959C36.7244 43.9079 36.7804 44.0559 36.7804 44.2399V49.9999C36.7804 50.1759 36.7244 50.3239 36.6124 50.4439C36.5004 50.5559 36.3524 50.6119 36.1684 50.6119Z" fill="#F04856"/>
<path d="M46.4838 53.0479C45.8998 53.0479 45.3758 52.9039 44.9118 52.6159C44.4478 52.3199 44.0798 51.9239 43.8078 51.4279C43.5438 50.9239 43.4118 50.3559 43.4118 49.7239C43.4118 49.0919 43.5558 48.5239 43.8438 48.0199C44.1398 47.5159 44.5358 47.1199 45.0318 46.8319C45.5358 46.5359 46.0998 46.3879 46.7238 46.3879C47.3478 46.3879 47.9078 46.5359 48.4038 46.8319C48.8998 47.1199 49.2918 47.5159 49.5798 48.0199C49.8758 48.5239 50.0238 49.0919 50.0238 49.7239V52.3999C50.0238 52.5759 49.9638 52.7239 49.8438 52.8439C49.7318 52.9559 49.5878 53.0119 49.4118 53.0119C49.2358 53.0119 49.0878 52.9559 48.9678 52.8439C48.8558 52.7239 48.7998 52.5759 48.7998 52.3999V51.9559C48.5198 52.2919 48.1798 52.5599 47.7798 52.7599C47.3878 52.9519 46.9558 53.0479 46.4838 53.0479ZM46.7238 51.9679C47.1318 51.9679 47.4958 51.8719 47.8158 51.6799C48.1358 51.4799 48.3878 51.2119 48.5718 50.8759C48.7558 50.5319 48.8478 50.1479 48.8478 49.7239C48.8478 49.2919 48.7558 48.9079 48.5718 48.5719C48.3878 48.2279 48.1358 47.9599 47.8158 47.7679C47.4958 47.5679 47.1318 47.4679 46.7238 47.4679C46.3238 47.4679 45.9598 47.5679 45.6318 47.7679C45.3118 47.9599 45.0558 48.2279 44.8638 48.5719C44.6798 48.9079 44.5878 49.2919 44.5878 49.7239C44.5878 50.1479 44.6798 50.5319 44.8638 50.8759C45.0558 51.2119 45.3118 51.4799 45.6318 51.6799C45.9598 51.8719 46.3238 51.9679 46.7238 51.9679Z" fill="#F04856"/>
<path d="M52.5535 52.9999C52.4015 52.9999 52.2655 52.9439 52.1455 52.8319C52.0255 52.7199 51.9655 52.5719 51.9655 52.3879V47.7079H51.4495C51.2815 47.7079 51.1455 47.6599 51.0415 47.5639C50.9375 47.4679 50.8855 47.3479 50.8855 47.2039C50.8855 47.0439 50.9375 46.9159 51.0415 46.8199C51.1455 46.7239 51.2815 46.6759 51.4495 46.6759H51.9655V46.4719C51.9655 45.8959 52.0775 45.3959 52.3015 44.9719C52.5335 44.5479 52.8535 44.2199 53.2615 43.9879C53.6695 43.7479 54.1415 43.6279 54.6775 43.6279C54.8535 43.6279 54.9975 43.6799 55.1095 43.7839C55.2295 43.8879 55.2895 44.0199 55.2895 44.1799C55.2895 44.3319 55.2295 44.4639 55.1095 44.5759C54.9975 44.6799 54.8535 44.7319 54.6775 44.7319C54.2295 44.7319 53.8695 44.8799 53.5975 45.1759C53.3255 45.4719 53.1895 45.8639 53.1895 46.3519V46.6759H54.4135C54.5815 46.6759 54.7175 46.7239 54.8215 46.8199C54.9255 46.9159 54.9775 47.0439 54.9775 47.2039C54.9775 47.3479 54.9255 47.4679 54.8215 47.5639C54.7175 47.6599 54.5815 47.7079 54.4135 47.7079H53.1895V52.3879C53.1895 52.5719 53.1335 52.7199 53.0215 52.8319C52.9095 52.9439 52.7535 52.9999 52.5535 52.9999Z" fill="#F04856"/>
<path d="M58.6397 52.9999C58.2397 52.9999 57.8797 52.8999 57.5597 52.6999C57.2397 52.4919 56.9877 52.2119 56.8037 51.8599C56.6197 51.5079 56.5277 51.1119 56.5277 50.6719V47.7079H55.9757C55.8077 47.7079 55.6717 47.6599 55.5677 47.5639C55.4637 47.4679 55.4117 47.3479 55.4117 47.2039C55.4117 47.0439 55.4637 46.9159 55.5677 46.8199C55.6717 46.7239 55.8077 46.6759 55.9757 46.6759H56.5277V44.9479C56.5277 44.7719 56.5837 44.6279 56.6957 44.5159C56.8077 44.4039 56.9517 44.3479 57.1277 44.3479C57.3037 44.3479 57.4477 44.4039 57.5597 44.5159C57.6717 44.6279 57.7277 44.7719 57.7277 44.9479V46.6759H58.7477C58.9157 46.6759 59.0517 46.7239 59.1557 46.8199C59.2597 46.9159 59.3117 47.0439 59.3117 47.2039C59.3117 47.3479 59.2597 47.4679 59.1557 47.5639C59.0517 47.6599 58.9157 47.7079 58.7477 47.7079H57.7277V50.6719C57.7277 50.9919 57.8157 51.2599 57.9917 51.4759C58.1677 51.6919 58.3837 51.7999 58.6397 51.7999H59.0477C59.1917 51.7999 59.3117 51.8559 59.4077 51.9679C59.5117 52.0799 59.5637 52.2239 59.5637 52.3999C59.5637 52.5759 59.4957 52.7199 59.3597 52.8319C59.2317 52.9439 59.0637 52.9999 58.8557 52.9999H58.6397Z" fill="#F04856"/>
<path d="M12.9035 66.0479C12.2795 66.0479 11.7155 65.9039 11.2115 65.6159C10.7155 65.3199 10.3195 64.9199 10.0235 64.4159C9.7355 63.9119 9.5915 63.3439 9.5915 62.7119C9.5915 62.0799 9.7235 61.5159 9.9875 61.0199C10.2595 60.5159 10.6275 60.1199 11.0915 59.8319C11.5555 59.5359 12.0795 59.3879 12.6635 59.3879C13.1355 59.3879 13.5715 59.4879 13.9715 59.6879C14.3715 59.8799 14.7075 60.1439 14.9795 60.4799V57.2399C14.9795 57.0559 15.0355 56.9079 15.1475 56.7959C15.2675 56.6839 15.4155 56.6279 15.5915 56.6279C15.7755 56.6279 15.9235 56.6839 16.0355 56.7959C16.1475 56.9079 16.2035 57.0559 16.2035 57.2399V62.7119C16.2035 63.3439 16.0555 63.9119 15.7595 64.4159C15.4715 64.9199 15.0795 65.3199 14.5835 65.6159C14.0875 65.9039 13.5275 66.0479 12.9035 66.0479ZM12.9035 64.9679C13.3115 64.9679 13.6755 64.8719 13.9955 64.6799C14.3155 64.4799 14.5675 64.2079 14.7515 63.8639C14.9355 63.5199 15.0275 63.1359 15.0275 62.7119C15.0275 62.2799 14.9355 61.8959 14.7515 61.5599C14.5675 61.2239 14.3155 60.9599 13.9955 60.7679C13.6755 60.5679 13.3115 60.4679 12.9035 60.4679C12.5035 60.4679 12.1395 60.5679 11.8115 60.7679C11.4915 60.9599 11.2355 61.2239 11.0435 61.5599C10.8595 61.8959 10.7675 62.2799 10.7675 62.7119C10.7675 63.1359 10.8595 63.5199 11.0435 63.8639C11.2355 64.2079 11.4915 64.4799 11.8115 64.6799C12.1395 64.8719 12.5035 64.9679 12.9035 64.9679Z" fill="#F04856"/>
<path d="M21.449 66.0479C20.785 66.0479 20.193 65.9079 19.673 65.6279C19.161 65.3399 18.757 64.9479 18.461 64.4519C18.173 63.9479 18.029 63.3719 18.029 62.7239C18.029 62.0679 18.165 61.4919 18.437 60.9959C18.717 60.4919 19.101 60.0999 19.589 59.8199C20.077 59.5319 20.637 59.3879 21.269 59.3879C21.893 59.3879 22.429 59.5279 22.877 59.8079C23.325 60.0799 23.665 60.4599 23.897 60.9479C24.137 61.4279 24.257 61.9839 24.257 62.6159C24.257 62.7679 24.205 62.8959 24.101 62.9999C23.997 63.0959 23.865 63.1439 23.705 63.1439H19.145C19.233 63.6959 19.485 64.1479 19.901 64.4999C20.325 64.8439 20.841 65.0159 21.449 65.0159C21.697 65.0159 21.949 64.9719 22.205 64.8839C22.469 64.7879 22.681 64.6799 22.841 64.5599C22.961 64.4719 23.089 64.4279 23.225 64.4279C23.369 64.4199 23.493 64.4599 23.597 64.5479C23.733 64.6679 23.805 64.7999 23.813 64.9439C23.821 65.0879 23.757 65.2119 23.621 65.3159C23.349 65.5319 23.009 65.7079 22.601 65.8439C22.201 65.9799 21.817 66.0479 21.449 66.0479ZM21.269 60.4199C20.677 60.4199 20.201 60.5839 19.841 60.9119C19.481 61.2399 19.253 61.6639 19.157 62.1839H23.153C23.081 61.6719 22.885 61.2519 22.565 60.9239C22.245 60.5879 21.813 60.4199 21.269 60.4199Z" fill="#F04856"/>
<path d="M28.2061 66.0479C27.6461 66.0479 27.1261 65.9639 26.6461 65.7959C26.1741 65.6199 25.8061 65.3999 25.5421 65.1359C25.4221 65.0079 25.3701 64.8639 25.3861 64.7039C25.4101 64.5359 25.4901 64.3999 25.6261 64.2959C25.7861 64.1679 25.9421 64.1159 26.0941 64.1399C26.2541 64.1559 26.3901 64.2239 26.5021 64.3439C26.6381 64.4959 26.8541 64.6399 27.1501 64.7759C27.4541 64.9039 27.7901 64.9679 28.1581 64.9679C28.6221 64.9679 28.9741 64.8919 29.2141 64.7399C29.4621 64.5879 29.5901 64.3919 29.5981 64.1519C29.6061 63.9119 29.4901 63.7039 29.2501 63.5279C29.0181 63.3519 28.5901 63.2079 27.9661 63.0959C27.1581 62.9359 26.5701 62.6959 26.2021 62.3759C25.8421 62.0559 25.6621 61.6639 25.6621 61.1999C25.6621 60.7919 25.7821 60.4559 26.0221 60.1919C26.2621 59.9199 26.5701 59.7199 26.9461 59.5919C27.3221 59.4559 27.7141 59.3879 28.1221 59.3879C28.6501 59.3879 29.1181 59.4719 29.5261 59.6399C29.9341 59.8079 30.2581 60.0399 30.4981 60.3359C30.6101 60.4639 30.6621 60.5999 30.6541 60.7439C30.6461 60.8799 30.5781 60.9959 30.4501 61.0919C30.3221 61.1799 30.1701 61.2079 29.9941 61.1759C29.8181 61.1439 29.6701 61.0719 29.5501 60.9599C29.3501 60.7679 29.1341 60.6359 28.9021 60.5639C28.6701 60.4919 28.4021 60.4559 28.0981 60.4559C27.7461 60.4559 27.4461 60.5159 27.1981 60.6359C26.9581 60.7559 26.8381 60.9319 26.8381 61.1639C26.8381 61.3079 26.8741 61.4399 26.9461 61.5599C27.0261 61.6719 27.1781 61.7759 27.4021 61.8719C27.6261 61.9599 27.9541 62.0479 28.3861 62.1359C29.2901 62.3119 29.9141 62.5639 30.2581 62.8919C30.6101 63.2119 30.7861 63.6079 30.7861 64.0799C30.7861 64.4479 30.6861 64.7799 30.4861 65.0759C30.2941 65.3719 30.0061 65.6079 29.6221 65.7839C29.2461 65.9599 28.7741 66.0479 28.2061 66.0479Z" fill="#F04856"/>
<path d="M33.0658 65.9999C32.8898 65.9999 32.7417 65.9439 32.6217 65.8319C32.5097 65.7119 32.4538 65.5639 32.4538 65.3879V60.0479C32.4538 59.8639 32.5097 59.7159 32.6217 59.6039C32.7417 59.4919 32.8898 59.4359 33.0658 59.4359C33.2498 59.4359 33.3978 59.4919 33.5098 59.6039C33.6218 59.7159 33.6777 59.8639 33.6777 60.0479V65.3879C33.6777 65.5639 33.6218 65.7119 33.5098 65.8319C33.3978 65.9439 33.2498 65.9999 33.0658 65.9999ZM33.0658 58.3679C32.8498 58.3679 32.6618 58.2919 32.5018 58.1399C32.3498 57.9799 32.2738 57.7919 32.2738 57.5759C32.2738 57.3599 32.3498 57.1759 32.5018 57.0239C32.6618 56.8639 32.8498 56.7839 33.0658 56.7839C33.2818 56.7839 33.4657 56.8639 33.6177 57.0239C33.7777 57.1759 33.8577 57.3599 33.8577 57.5759C33.8577 57.7919 33.7777 57.9799 33.6177 58.1399C33.4657 58.2919 33.2818 58.3679 33.0658 58.3679Z" fill="#F04856"/>
<path d="M38.6908 66.0479C38.0908 66.0479 37.5588 65.9079 37.0948 65.6279C36.6388 65.3399 36.2788 64.9479 36.0148 64.4519C35.7508 63.9479 35.6188 63.3719 35.6188 62.7239C35.6188 62.0679 35.7588 61.4919 36.0388 60.9959C36.3268 60.4919 36.7188 60.0999 37.2148 59.8199C37.7108 59.5319 38.2828 59.3879 38.9308 59.3879C39.5708 59.3879 40.1388 59.5319 40.6348 59.8199C41.1308 60.0999 41.5188 60.4919 41.7988 60.9959C42.0868 61.4919 42.2308 62.0679 42.2308 62.7239V65.3159C42.2308 65.9479 42.0908 66.5199 41.8108 67.0319C41.5308 67.5519 41.1388 67.9639 40.6348 68.2679C40.1388 68.5719 39.5628 68.7239 38.9068 68.7239C38.3388 68.7239 37.8068 68.6119 37.3108 68.3879C36.8148 68.1639 36.3948 67.8359 36.0508 67.4039C35.9468 67.2679 35.9068 67.1279 35.9308 66.9839C35.9628 66.8399 36.0428 66.7239 36.1708 66.6359C36.3148 66.5399 36.4628 66.5079 36.6148 66.5399C36.7748 66.5719 36.9028 66.6519 36.9988 66.7799C37.2148 67.0519 37.4868 67.2639 37.8148 67.4159C38.1428 67.5679 38.5148 67.6439 38.9308 67.6439C39.3148 67.6439 39.6668 67.5519 39.9868 67.3679C40.3148 67.1839 40.5748 66.9119 40.7668 66.5519C40.9588 66.1919 41.0548 65.7519 41.0548 65.2319V64.6439C40.8068 65.0759 40.4788 65.4199 40.0708 65.6759C39.6628 65.9239 39.2028 66.0479 38.6908 66.0479ZM38.9308 64.9679C39.3468 64.9679 39.7148 64.8719 40.0348 64.6799C40.3548 64.4879 40.6028 64.2239 40.7788 63.8879C40.9628 63.5519 41.0548 63.1639 41.0548 62.7239C41.0548 62.2839 40.9628 61.8959 40.7788 61.5599C40.6028 61.2159 40.3548 60.9479 40.0348 60.7559C39.7148 60.5639 39.3468 60.4679 38.9308 60.4679C38.5148 60.4679 38.1468 60.5639 37.8268 60.7559C37.5068 60.9479 37.2548 61.2159 37.0708 61.5599C36.8868 61.8959 36.7948 62.2839 36.7948 62.7239C36.7948 63.1639 36.8868 63.5519 37.0708 63.8879C37.2548 64.2239 37.5068 64.4879 37.8268 64.6799C38.1468 64.8719 38.5148 64.9679 38.9308 64.9679Z" fill="#F04856"/>
<path d="M44.6645 66.0119C44.4885 66.0119 44.3405 65.9559 44.2205 65.8439C44.1085 65.7239 44.0525 65.5759 44.0525 65.3999V60.0479C44.0525 59.8639 44.1085 59.7159 44.2205 59.6039C44.3405 59.4919 44.4885 59.4359 44.6645 59.4359C44.8485 59.4359 44.9965 59.4919 45.1085 59.6039C45.2205 59.7159 45.2765 59.8639 45.2765 60.0479V60.1799C45.5245 59.9319 45.8245 59.7359 46.1765 59.5919C46.5285 59.4479 46.9085 59.3759 47.3165 59.3759C47.8685 59.3759 48.3605 59.4959 48.7925 59.7359C49.2325 59.9679 49.5765 60.3119 49.8245 60.7679C50.0805 61.2239 50.2085 61.7839 50.2085 62.4479V65.3999C50.2085 65.5759 50.1485 65.7239 50.0285 65.8439C49.9165 65.9559 49.7725 66.0119 49.5965 66.0119C49.4205 66.0119 49.2725 65.9559 49.1525 65.8439C49.0405 65.7239 48.9845 65.5759 48.9845 65.3999V62.4479C48.9845 61.7679 48.8005 61.2719 48.4325 60.9599C48.0725 60.6399 47.6205 60.4799 47.0765 60.4799C46.7405 60.4799 46.4365 60.5479 46.1645 60.6839C45.8925 60.8199 45.6765 61.0039 45.5165 61.2359C45.3565 61.4599 45.2765 61.7199 45.2765 62.0159V65.3999C45.2765 65.5759 45.2205 65.7239 45.1085 65.8439C44.9965 65.9559 44.8485 66.0119 44.6645 66.0119Z" fill="#F04856"/>
</svg>
